<svg data-name="Layer 1" viewBox="0 0 508.33 508.36" xmlns="http://www.w3.org/2000/svg"><defs><mask height="716.8" id="a" maskUnits="userSpaceOnUse" width="1221.81" x="-121.52" y="-122.64"><path d="M-119.69-120.82h1221.82V596H-119.69v-716.8Z" transform="translate(-1.83 -1.82)" fill="#ffffff" class="fill-ffffff"></path></mask></defs><path d="M485 29.72c11.45 15.13 16.61 40.21 19.15 70.7 3.36 45.5 4.71 100.1 6 156.52-1.67 57.47-2.35 115.43-6 156.52-2.88 31.54-9 52.66-19.22 65.47-13 12.79-37.94 23.59-73.5 26.15-43.25 3.69-96.61 3.65-155.48 5.1-65.44-1.12-109.82-.64-156.38-5.08-36.32-2.52-60.08-13.19-74.7-26.07-10.83-14.54-14-30-17-66.24-3.75-41.85-4.58-98.56-6-155.54C4 200.57 4.13 143.44 7.9 100.74 10.43 67.05 14.42 44.4 24.65 30 39 17.77 63.48 11.69 100 8.69c50-5.85 102.06-7 155.88-6.87 55.39.09 108.56 1.67 156 6.34 32 2.56 58.48 8.07 73.07 21.56Z" transform="translate(-1.83 -1.82)" fill="#ffffff" fill-rule="evenodd" class="fill-fafafa"></path><g data-name="gitlab logo" mask="url(#a)"><path d="m400.32 257.47-16.84-51.81L350.11 103a5.74 5.74 0 0 0-10.91 0l-33.36 102.65H195L161.67 103a5.74 5.74 0 0 0-10.91 0L117.4 205.65l-16.83 51.81a11.47 11.47 0 0 0 4.17 12.82l145.7 105.88 145.71-105.87a11.47 11.47 0 0 0 4.17-12.82" transform="translate(-1.83 -1.82)" fill="#666666" class="fill-fc6d26"></path><path d="m250.44 376.16 55.4-170.5H195l55.4 170.5Z" transform="translate(-1.83 -1.82)" fill="#242424" class="fill-e24329"></path><path d="M250.44 376.16 195 205.65h-77.6l133 170.5Z" transform="translate(-1.83 -1.82)" fill="#666666" class="fill-fc6d26"></path><path d="m117.4 205.65-16.84 51.81a11.47 11.47 0 0 0 4.17 12.82l145.71 105.88-133-170.5Z" transform="translate(-1.83 -1.82)" fill="#b0b0b0" class="fill-fca326"></path><path d="M117.4 205.65H195L161.67 103a5.73 5.73 0 0 0-10.91 0L117.4 205.65Z" transform="translate(-1.83 -1.82)" fill="#242424" class="fill-e24329"></path><path d="m250.44 376.16 55.4-170.5h77.64l-133 170.5Z" transform="translate(-1.83 -1.82)" fill="#666666" class="fill-fc6d26"></path><path d="m383.48 205.65 16.84 51.81a11.47 11.47 0 0 1-4.17 12.82L250.44 376.16l133-170.5Z" transform="translate(-1.83 -1.82)" fill="#b0b0b0" class="fill-fca326"></path><path d="M383.48 205.65h-77.64L339.21 103a5.73 5.73 0 0 1 10.91 0l33.37 102.69Z" transform="translate(-1.83 -1.82)" fill="#242424" class="fill-e24329"></path></g></svg>