<svg viewBox="0 0 152 152" xmlns="http://www.w3.org/2000/svg"><defs><linearGradient id="a" x1=".5" x2=".5" y1="1" y2="0"><stop offset="0" stop-color="#ffffff" class="stop-color-b8daff"></stop><stop offset=".006" stop-color="#ffffff" class="stop-color-b8daff"></stop><stop offset="1" stop-color="#ffffff" class="stop-color-f6f9ff"></stop></linearGradient></defs><path d="M152 152H0V0h152v152z" fill="#ffffff" class="fill-77a1c9"></path><path d="M1.333 1.333h149.334v149.334H1.333V1.333z" fill="url(#a)" class="fillurl(-a)"></path><path d="M82.667 18.667h-72V16h72v2.667zM54.667 30.667h-24V28h24v2.667zM72 42.667H53.333V40H72v2.667zM118.667 54.667h-72V52h72v2.667zM50.667 66.667H32V64h18.667v2.667zM81.333 78.667H18.667V76h62.666v2.667zM38.667 90.667h-20V88h20v2.667zM65.333 102.667h-36V100h36v2.667zM117.333 114.667H46.667V112h70.666v2.667zM128 126.667H68V124h60v2.667zM108 138.667H46.667V136H108v2.667zM23.583 111.396c-9.458 0-17.083 7.687-17.083 17.146 0 9.437 7.625 17.125 17.083 17.125 5 0 9.5-2.167 12.667-5.563l-5.27-4.896c-2.022 1.813-4.563 2.73-7.397 2.73-5 0-8.937-3.646-8.937-9.396 0-5.771 3.937-9.459 8.937-9.459 2.834 0 5.375.959 7.396 2.771l5.271-4.896c-3.167-3.395-7.667-5.562-12.667-5.562z" fill="#000000" class="fill-ff3300"></path></svg>